# xmcd CD database file
#
# Track frame offsets:
#	150
#	15981
#	29616
#	49636
#	70334
#	86713
#	98565
#	114536
#	131061
#	141735
#	154948
#	175271
#	191575
#
# Disc length: 2829 seconds
#
# Revision: 0
# Processed by: cddbd v1.5.2PL0 Copyright (c) Steve Scherf et al.
# Submitted via: CDex 1.51
#
DISCID=b50b0b0d
DTITLE=Jim Brickman - Homecoming
DYEAR=2007
DGENRE=New Age
TTITLE0=Thanksgiving
TTITLE1=Good King Wenceslas
TTITLE2=Coming Home For Christmas
TTITLE3=Gathering
TTITLE4=Deck The Halls
TTITLE5=Joy
TTITLE6=I Heard The Bells On Christmas Day
TTITLE7=Still Nacht
TTITLE8=I Saw Three Ships
TTITLE9=Bethlehem
TTITLE10=My Angel (Christmas)
TTITLE11=Auld Lang Zyne
TTITLE12=Coming Home For Christmas (Bonus Mix)
EXTD=YEAR: 2007
EXTT0=
EXTT1=
EXTT2=
EXTT3=
EXTT4=
EXTT5=
EXTT6=
EXTT7=
EXTT8=
EXTT9=
EXTT10=
EXTT11=
EXTT12=
PLAYORDER=
